<?xml version="1.0" encoding="utf-8"?>
<!-- Generator: Adobe Illustrator 22.1.0, SVG Export Plug-In . SVG Version: 6.00 Build 0)  -->
<svg version="1.1" id="Layer_1" xmlns="http://www.w3.org/2000/svg" xmlns:xlink="http://www.w3.org/1999/xlink" x="0px" y="0px"
	 viewBox="0 0 156.3 56" style="enable-background:new 0 0 156.3 56;" xml:space="preserve">
<style type="text/css">
	.st0{fill:#054173;}
</style>
<g>
	<polygon class="st0" points="69.3,13.6 69.3,25.6 67.2,25.6 67.2,20.1 62.4,20.1 62.4,25.6 60.3,25.6 60.3,13.6 62.4,13.6 
		62.4,18.4 67.2,18.4 67.2,13.6 	"/>
	<path class="st0" d="M71.4,16.8h2v8.7h-2V16.8L71.4,16.8z M72.4,13.4c0.4,0,0.7,0.1,0.9,0.3c0.2,0.2,0.3,0.5,0.3,0.8
		s-0.1,0.6-0.3,0.8c-0.2,0.2-0.5,0.3-0.9,0.3s-0.7-0.1-0.9-0.3c-0.2-0.2-0.3-0.5-0.3-0.8s0.1-0.6,0.3-0.8
		C71.7,13.5,72,13.4,72.4,13.4L72.4,13.4z"/>
	<polygon class="st0" points="77.5,25.6 75.4,25.6 75.4,13.1 77.5,13.1 	"/>
	<polygon class="st0" points="81.5,25.6 79.5,25.6 79.5,13.1 81.5,13.1 	"/>
	<path class="st0" d="M87.5,20.4c0.4,0,0.8,0.1,1.1,0.3c0.3,0.1,0.5,0.3,0.7,0.5s0.3,0.4,0.4,0.7c0.1,0.3,0.1,0.5,0.1,0.8V23
		c0,0.5-0.1,0.9-0.2,1.3c-0.2,0.3-0.4,0.6-0.7,0.8c-0.3,0.2-0.7,0.4-1.2,0.5c-0.4,0.1-1,0.1-1.5,0.1s-1,0-1.5-0.1
		c-0.5,0-1.1-0.2-1.6-0.3l0.3-1.5c0.5,0.1,1,0.2,1.4,0.3c0.4,0,0.8,0.1,1.3,0.1c0.4,0,0.7,0,0.9-0.1c0.2,0,0.4-0.1,0.5-0.2
		s0.2-0.2,0.3-0.3c0-0.1,0.1-0.3,0.1-0.4c0-0.2,0-0.5-0.2-0.6c-0.1-0.2-0.4-0.3-0.8-0.3l-1.2-0.1c-0.9-0.1-1.5-0.4-1.9-0.8
		s-0.6-0.9-0.6-1.6v-0.1c0-0.9,0.3-1.5,1-2c0.6-0.4,1.6-0.6,2.8-0.6c0.6,0,1.1,0,1.6,0.1s0.9,0.2,1.2,0.3L89.5,19
		c-0.4-0.1-0.8-0.2-1.1-0.2c-0.4,0-0.8-0.1-1.2-0.1c-0.8,0-1.3,0.1-1.6,0.2c-0.3,0.1-0.4,0.4-0.4,0.8c0,0.3,0.1,0.5,0.2,0.6
		s0.4,0.2,0.9,0.3L87.5,20.4L87.5,20.4z"/>
	<path class="st0" d="M97.1,20.9c0-0.4,0-0.8-0.1-1.1c0-0.3-0.1-0.6-0.3-0.8c-0.1-0.2-0.3-0.4-0.5-0.5s-0.5-0.2-0.9-0.2
		c-0.6,0-1.1,0.2-1.4,0.5s-0.4,0.9-0.4,1.7v3.3c0.1,0.1,0.4,0.2,0.7,0.2s0.6,0.1,0.9,0.1c0.7,0,1.3-0.2,1.6-0.6s0.5-1.1,0.5-2
		L97.1,20.9L97.1,20.9z M99.2,21.5c0,0.7-0.1,1.4-0.3,1.9c-0.2,0.5-0.5,1-0.8,1.3s-0.8,0.6-1.3,0.7s-1.1,0.2-1.8,0.2
		c-0.7,0-1.3-0.1-2-0.2c-0.6-0.1-1.2-0.4-1.7-0.6V13.1h2v4.6c0.2-0.3,0.6-0.5,1-0.7s0.9-0.2,1.5-0.2c1.1,0,1.9,0.3,2.5,1
		c0.5,0.7,0.8,1.8,0.8,3.2L99.2,21.5L99.2,21.5z"/>
	<path class="st0" d="M104.7,24.1c0.7,0,1.2-0.2,1.5-0.5c0.3-0.4,0.4-1,0.4-1.9v-1c0-0.9-0.1-1.5-0.4-1.9s-0.8-0.5-1.5-0.5
		s-1.2,0.2-1.5,0.5c-0.3,0.4-0.4,1-0.4,1.9v1c0,0.5,0,0.9,0.1,1.2c0,0.3,0.2,0.6,0.3,0.7c0.1,0.2,0.3,0.3,0.6,0.4
		C104.1,24.1,104.4,24.1,104.7,24.1L104.7,24.1z M104.7,16.6c0.8,0,1.4,0.1,1.9,0.3c0.5,0.2,0.9,0.5,1.2,0.9
		c0.3,0.3,0.5,0.8,0.6,1.3s0.2,1.1,0.2,1.7v0.7c0,0.6,0,1.1-0.2,1.6c-0.1,0.5-0.3,0.9-0.6,1.3c-0.3,0.4-0.7,0.7-1.2,0.9
		c-0.5,0.2-1.2,0.3-2,0.3s-1.4-0.1-1.9-0.3c-0.5-0.2-0.9-0.5-1.2-0.9c-0.3-0.4-0.5-0.8-0.6-1.3s-0.2-1.1-0.2-1.7v-0.7
		c0-0.6,0-1.2,0.2-1.7s0.3-0.9,0.6-1.3c0.3-0.3,0.7-0.6,1.2-0.9C103.3,16.7,103.9,16.6,104.7,16.6L104.7,16.6z"/>
	<path class="st0" d="M115.7,18.6c-0.1,0-0.3,0-0.5-0.1c-0.2,0-0.4,0-0.6,0c-0.7,0-1.3,0.2-1.6,0.6c-0.3,0.4-0.5,1-0.5,1.8v4.8h-2
		V17h1.8l0.1,1c0.3-0.4,0.6-0.7,1-0.8c0.4-0.2,0.9-0.3,1.5-0.3c0.2,0,0.4,0,0.6,0s0.3,0.1,0.5,0.1L115.7,18.6L115.7,18.6z"/>
	<path class="st0" d="M120.5,24.1c0.7,0,1.2-0.2,1.5-0.5c0.3-0.4,0.4-1,0.4-1.9v-1c0-0.9-0.1-1.5-0.4-1.9s-0.8-0.5-1.5-0.5
		s-1.2,0.2-1.5,0.5c-0.3,0.4-0.4,1-0.4,1.9v1c0,0.5,0,0.9,0.1,1.2c0,0.3,0.2,0.6,0.3,0.7c0.1,0.2,0.3,0.3,0.6,0.4
		C119.9,24.1,120.2,24.1,120.5,24.1L120.5,24.1z M120.5,16.6c0.8,0,1.4,0.1,1.9,0.3c0.5,0.2,0.9,0.5,1.2,0.9
		c0.3,0.3,0.5,0.8,0.6,1.3s0.2,1.1,0.2,1.7v0.7c0,0.6,0,1.1-0.2,1.6c-0.1,0.5-0.3,0.9-0.6,1.3c-0.3,0.4-0.7,0.7-1.2,0.9
		c-0.5,0.2-1.2,0.3-2,0.3s-1.4-0.1-1.9-0.3c-0.5-0.2-0.9-0.5-1.2-0.9s-0.5-0.8-0.6-1.3s-0.2-1.1-0.2-1.7v-0.7c0-0.6,0-1.2,0.2-1.7
		c0.1-0.5,0.3-0.9,0.6-1.3c0.3-0.3,0.7-0.6,1.2-0.9C119.1,16.7,119.7,16.6,120.5,16.6L120.5,16.6z"/>
	<path class="st0" d="M133.7,16.8v8.7H132l-0.1-0.9c-0.3,0.3-0.6,0.6-1.1,0.8c-0.4,0.2-0.9,0.3-1.5,0.3c-0.4,0-0.9,0-1.2-0.2
		c-0.4-0.1-0.7-0.3-1-0.5s-0.5-0.5-0.6-0.9s-0.2-0.8-0.2-1.4v-5.9h2v5.3c0,0.7,0.1,1.2,0.3,1.5s0.7,0.4,1.3,0.4s1.1-0.1,1.4-0.5
		c0.3-0.3,0.4-0.9,0.4-1.7v-5.1L133.7,16.8L133.7,16.8z"/>
	<path class="st0" d="M137.5,21.3c0,0.4,0,0.8,0.1,1.1c0,0.3,0.1,0.6,0.3,0.8c0.1,0.2,0.3,0.4,0.5,0.5s0.5,0.1,0.9,0.1
		c0.6,0,1.1-0.2,1.4-0.5c0.3-0.3,0.4-0.9,0.4-1.7v-3c-0.2-0.1-0.4-0.2-0.7-0.2s-0.6-0.1-0.9-0.1c-0.7,0-1.3,0.2-1.6,0.6
		s-0.5,1-0.5,1.9L137.5,21.3L137.5,21.3z M135.4,20.8c0-0.7,0.1-1.3,0.3-1.9c0.2-0.5,0.5-0.9,0.8-1.3c0.3-0.3,0.8-0.6,1.3-0.7
		s1.1-0.2,1.8-0.2s1.3,0.1,2,0.2c0.6,0.1,1.2,0.4,1.7,0.6V25c0,1.4-0.3,2.5-1.1,3.3c-0.7,0.8-1.7,1.2-3.1,1.2c-0.7,0-1.3,0-1.8-0.1
		s-1.1-0.2-1.6-0.4l0.3-1.5c0.4,0.1,0.8,0.2,1.3,0.3c0.4,0.1,1,0.1,1.5,0.1c0.8,0,1.5-0.2,1.9-0.7s0.5-1.2,0.5-2.1v-0.5
		c-0.5,0.6-1.4,1-2.5,1s-1.9-0.3-2.5-1s-0.8-1.7-0.8-3.1L135.4,20.8L135.4,20.8z"/>
	<path class="st0" d="M145.3,25.6V13.1h2v4.5c0.3-0.3,0.6-0.5,1-0.7c0.4-0.1,0.9-0.2,1.4-0.2s0.9,0,1.3,0.2c0.4,0.1,0.7,0.3,1,0.5
		s0.5,0.6,0.6,0.9c0.1,0.4,0.2,0.8,0.2,1.3v5.9h-2v-5.3c0-0.7-0.1-1.2-0.4-1.5s-0.7-0.4-1.3-0.4s-1.1,0.2-1.4,0.5
		c-0.3,0.3-0.4,0.9-0.4,1.7v5.1L145.3,25.6L145.3,25.6z"/>
	<path class="st0" d="M65,41.6c-1,0-1.8-0.1-2.5-0.3c-0.6-0.2-1.2-0.6-1.5-1c-0.4-0.4-0.6-1-0.8-1.7c-0.1-0.7-0.2-1.5-0.2-2.4V35
		c0-0.8,0.1-1.6,0.2-2.3c0.1-0.7,0.4-1.3,0.8-1.8s0.9-0.8,1.6-1.1c0.6-0.2,1.5-0.4,2.5-0.4c0.5,0,0.9,0,1.4,0.1
		c0.4,0.1,0.8,0.2,1.2,0.3l-0.3,1.6c-0.2-0.1-0.5-0.1-0.9-0.2c-0.3,0-0.7-0.1-1.1-0.1c-0.6,0-1.1,0-1.5,0.1s-0.7,0.3-1,0.6
		c-0.2,0.3-0.4,0.7-0.6,1.2c-0.1,0.5-0.2,1.1-0.2,1.9V36c0,0.8,0,1.4,0.1,1.9s0.3,0.9,0.5,1.1c0.2,0.3,0.6,0.5,1,0.6
		c0.4,0.1,0.9,0.1,1.6,0.1c0.3,0,0.7,0,1.1,0s0.8-0.1,1.2-0.1l-0.3,1.7c-0.3,0.1-0.8,0.1-1.2,0.2C65.8,41.6,65.4,41.6,65,41.6
		L65,41.6z"/>
	<path class="st0" d="M72.9,40c0.7,0,1.2-0.2,1.5-0.5c0.3-0.4,0.4-1,0.4-1.9v-1c0-0.9-0.1-1.5-0.4-1.9s-0.8-0.5-1.5-0.5
		s-1.2,0.2-1.5,0.5c-0.3,0.4-0.4,1-0.4,1.9v1c0,0.5,0,0.9,0.1,1.2c0,0.3,0.2,0.6,0.3,0.7c0.1,0.2,0.3,0.3,0.6,0.4
		C72.3,40,72.6,40,72.9,40L72.9,40z M72.9,32.5c0.8,0,1.4,0.1,1.9,0.3s0.9,0.5,1.2,0.9c0.3,0.3,0.5,0.8,0.6,1.3s0.2,1.1,0.2,1.7v0.7
		c0,0.6,0,1.1-0.2,1.6c-0.1,0.5-0.3,0.9-0.6,1.3c-0.3,0.4-0.7,0.7-1.2,0.9s-1.2,0.3-2,0.3s-1.4-0.1-1.9-0.3s-0.9-0.5-1.2-0.9
		c-0.3-0.4-0.5-0.8-0.6-1.3s-0.2-1.1-0.2-1.7v-0.7c0-0.6,0-1.2,0.2-1.7c0.1-0.5,0.3-0.9,0.6-1.3c0.3-0.3,0.7-0.6,1.2-0.9
		C71.5,32.6,72.1,32.5,72.9,32.5L72.9,32.5z"/>
	<path class="st0" d="M86.1,32.7v8.7h-1.8l-0.1-0.9c-0.3,0.3-0.6,0.6-1.1,0.8s-0.9,0.3-1.5,0.3c-0.4,0-0.9,0-1.2-0.2
		c-0.4-0.1-0.7-0.3-1-0.5s-0.5-0.5-0.6-0.9s-0.2-0.8-0.2-1.4v-5.9h2V38c0,0.7,0.1,1.2,0.3,1.5c0.2,0.3,0.7,0.4,1.3,0.4
		c0.6,0,1.1-0.1,1.4-0.5c0.3-0.3,0.4-0.9,0.4-1.7v-5.1L86.1,32.7L86.1,32.7z"/>
	<path class="st0" d="M88.1,41.5v-8.7h1.8l0.1,0.9c0.3-0.3,0.6-0.6,1.1-0.8c0.4-0.2,0.9-0.3,1.5-0.3c0.5,0,0.9,0,1.3,0.2
		c0.4,0.1,0.7,0.3,1,0.5s0.5,0.6,0.6,0.9c0.1,0.4,0.2,0.8,0.2,1.3v5.9h-2v-5.3c0-0.7-0.1-1.2-0.4-1.5c-0.2-0.3-0.7-0.4-1.3-0.4
		c-0.6,0-1.1,0.2-1.4,0.5s-0.4,0.9-0.4,1.7v5.1L88.1,41.5L88.1,41.5z"/>
	<path class="st0" d="M100.2,34.2v4.1c0,0.6,0.1,1,0.3,1.3c0.2,0.2,0.6,0.4,1.2,0.4c0.2,0,0.5,0,0.6,0c0.2,0,0.3,0,0.5-0.1l-0.2,1.4
		c-0.2,0-0.4,0.1-0.7,0.1c-0.3,0-0.6,0-0.9,0c-0.5,0-0.9,0-1.3-0.2c-0.3-0.1-0.7-0.3-0.9-0.6c-0.2-0.2-0.4-0.6-0.5-1
		s-0.2-0.9-0.2-1.5V34h-1.6l0.2-1.5h1.4v-2.1l2-0.2v2.4h2.7l-0.2,1.5L100.2,34.2L100.2,34.2z"/>
	<path class="st0" d="M104.9,43.9c0.2,0,0.4,0,0.6-0.1c0.2,0,0.3-0.1,0.5-0.3c0.1-0.1,0.3-0.3,0.4-0.5s0.2-0.5,0.4-0.8l0.2-0.6
		l-3.5-8.7h2.3l2.3,6.6l2.1-6.6h2.2l-3.7,9.9c-0.2,0.5-0.4,0.9-0.6,1.3c-0.2,0.3-0.4,0.6-0.7,0.9c-0.2,0.2-0.6,0.4-0.9,0.5
		s-0.7,0.1-1.1,0.1c-0.3,0-0.7,0-1-0.1c-0.3,0-0.5-0.1-0.7-0.2l0.2-1.4c0.1,0,0.3,0.1,0.5,0.1C104.5,43.9,104.7,43.9,104.9,43.9
		L104.9,43.9z"/>
	<path class="st0" d="M27.7,53c-13.3,0-24-10.7-24-24s10.7-24,24-24s24,10.7,24,24S41,53,27.7,53L27.7,53z M27.7,4.2
		C14,4.2,2.9,15.3,2.9,29S14,53.8,27.7,53.8S52.5,42.7,52.5,29S41.4,4.2,27.7,4.2L27.7,4.2z"/>
	<path class="st0" d="M37.3,41.5v-1H37v-9.6h0.5v-1.1h0.3v-0.5h-1.1c-0.2-4-3.2-7.3-7-8.2v-1.3h-0.3V17h0.3v-0.5H30
		c0.3,0,0.5-0.2,0.5-0.5c0-0.3-0.2-0.4-0.4-0.6c-0.2-0.1-0.5-0.3-0.7-0.6c-0.8-0.9-1.1-2.2-1.1-3.3H28V11h-0.1V8.6
		c0.1,0,0.3-0.2,0.3-0.4s-0.4-1.1-0.4-1.1S27.3,8,27.3,8.2s0.1,0.3,0.3,0.4v2.2h-0.1v0.5h-0.3c0,1.2-0.2,2.5-1.1,3.3
		c-0.2,0.2-0.4,0.4-0.7,0.6c-0.2,0.1-0.4,0.3-0.4,0.6s0.2,0.5,0.5,0.5h0.3v0.5H26v2.8h-0.3v1.3c-3.8,0.8-6.7,4.2-7,8.2h-1.1v0.5h0.3
		v1.1h0.5v9.6h-0.3v1H8.7c4.1,6.2,11.1,10.3,19,10.3s15-4.1,19-10.3h-9.4V41.5z M31.1,33.2l0.3,0.5l0.3-0.5v7.3h-0.5L31.1,33.2
		L31.1,33.2z M28.6,16.9h0.5v2.8h-0.5V16.9z M27.2,16.9h1.1v2.8h-1.1V16.9z M26.3,16.9h0.5v2.8h-0.5V16.9z M23.8,33.2l0.3,0.5
		l0.3-0.5v7.3h-0.5L23.8,33.2L23.8,33.2z M23,41.5h-3.1v-1h-0.3v-9c0-0.3,0.8-0.5,1.8-0.5l0,0c1,0,1.5,0.1,1.7,0.3L23,31.5l0.3,0.5
		v8.4H23V41.5z M25.2,41.5v-1h-0.3v-8.4l0.3-0.5L25,31.4c0.3-0.2,1.4-0.4,2.7-0.4c1.3,0,2.3,0.1,2.7,0.4l-0.1,0.1l0.3,0.5v8.4h-0.3
		v1L25.2,41.5L25.2,41.5z M32.2,40.4V32l0.3-0.5l-0.2-0.2C32.5,31.1,33,31,34,31l0,0c1,0,1.8,0.2,1.8,0.5v9h-0.3v1h-3.1v-1
		L32.2,40.4L32.2,40.4z"/>
	<g>
		<g>
			<path class="st0" d="M123.1,32.8l-0.2,1.3h-3.8v2.6h3.4l-0.1,1.3h-3.2v3.7h-1.5v-8.8L123.1,32.8L123.1,32.8z"/>
			<path class="st0" d="M125.2,41.6h-1.5v-9.2h1.5V41.6z"/>
			<path class="st0" d="M129.1,35c0.5,0,1,0.1,1.4,0.2c0.4,0.1,0.7,0.4,0.9,0.6c0.2,0.2,0.4,0.6,0.5,1s0.1,0.8,0.1,1.2v0.5
				c0,0.4,0,0.8-0.1,1.2s-0.2,0.7-0.4,1s-0.5,0.5-0.9,0.6c-0.3,0.1-0.8,0.2-1.4,0.2c-0.6,0-1-0.1-1.4-0.2c-0.4-0.1-0.7-0.4-0.9-0.6
				c-0.2-0.3-0.4-0.6-0.5-1s-0.1-0.8-0.1-1.2V38c0-0.4,0-0.8,0.1-1.2s0.2-0.7,0.5-1c0.2-0.2,0.5-0.5,0.9-0.6
				C128.1,35,128.6,35,129.1,35z M129.1,40.5c0.5,0,0.9-0.1,1.1-0.4c0.2-0.2,0.3-0.7,0.3-1.4V38c0-0.6-0.1-1.1-0.3-1.4
				c-0.2-0.3-0.6-0.4-1.1-0.4s-0.9,0.1-1.1,0.4c-0.2,0.2-0.3,0.7-0.3,1.4v0.7c0,0.3,0,0.6,0.1,0.9c0,0.2,0.1,0.4,0.2,0.5
				s0.2,0.2,0.4,0.3C128.7,40.5,128.9,40.5,129.1,40.5z"/>
			<path class="st0" d="M136.9,36.4c-0.1,0-0.2,0-0.3,0s-0.3,0-0.4,0c-0.5,0-0.9,0.1-1.2,0.4c-0.2,0.3-0.3,0.7-0.3,1.3v3.5h-1.5
				v-6.4h1.3l0.1,0.7c0.2-0.3,0.4-0.5,0.7-0.6s0.7-0.2,1.1-0.2c0.1,0,0.3,0,0.4,0c0.1,0,0.2,0,0.4,0.1L136.9,36.4z"/>
			<path class="st0" d="M138.6,32.6c0.3,0,0.5,0,0.7,0.2c0.1,0.1,0.2,0.3,0.2,0.6c0,0.2,0,0.4-0.2,0.6c-0.1,0.1-0.4,0.2-0.7,0.2
				s-0.5,0-0.7-0.2c-0.1-0.1-0.2-0.3-0.2-0.6c0-0.2,0-0.4,0.2-0.6C138,32.6,138.2,32.6,138.6,32.6z M137.8,35.1h1.5v6.4h-1.5V35.1z"
				/>
			<path class="st0" d="M140.4,38.2c0-0.5,0-1,0.2-1.4c0.1-0.4,0.3-0.7,0.5-1c0.2-0.2,0.5-0.4,0.8-0.6c0.3-0.1,0.7-0.2,1.1-0.2
				c0.3,0,0.6,0,0.9,0.1s0.5,0.2,0.7,0.3v-3.1h1.5v9.2h-1.3l-0.1-0.7c0,0.1-0.1,0.2-0.3,0.3c-0.1,0.1-0.2,0.2-0.4,0.2
				c-0.1,0.1-0.3,0.1-0.5,0.2c-0.2,0-0.4,0-0.7,0c-0.4,0-0.8,0-1.1-0.2c-0.3-0.1-0.5-0.3-0.7-0.6c-0.2-0.2-0.3-0.6-0.4-1
				c-0.1-0.4-0.1-0.8-0.1-1.3L140.4,38.2L140.4,38.2z M141.9,38.6c0,0.3,0,0.6,0,0.8s0.1,0.4,0.2,0.6c0.1,0.1,0.2,0.3,0.4,0.4
				c0.2,0.1,0.4,0.1,0.7,0.1s0.5,0,0.7-0.1c0.2,0,0.3-0.2,0.4-0.3c0.1-0.1,0.2-0.3,0.2-0.5s0-0.4,0-0.7v-2.3
				c-0.2-0.1-0.4-0.2-0.6-0.2c-0.2,0-0.4-0.1-0.6-0.1c-0.5,0-0.9,0.1-1.2,0.4c-0.2,0.3-0.3,0.8-0.3,1.4L141.9,38.6L141.9,38.6z"/>
			<path class="st0" d="M147.1,39.6c0-0.4,0-0.7,0.1-0.9s0.2-0.4,0.5-0.6c0.2-0.1,0.4-0.2,0.7-0.3c0.3,0,0.6-0.1,1-0.1
				s0.7,0,0.9,0.1s0.5,0.2,0.6,0.4v-0.4c0-0.5-0.1-0.9-0.4-1.1c-0.2-0.2-0.7-0.3-1.3-0.3c-0.3,0-0.6,0-0.9,0c-0.3,0-0.6,0.1-0.8,0.1
				l0.2-1.1c0.2-0.1,0.6-0.1,0.9-0.2c0.3,0,0.7-0.1,1-0.1c0.4,0,0.8,0,1.1,0.1s0.6,0.2,0.9,0.4s0.4,0.4,0.5,0.7s0.2,0.7,0.2,1.1v4.2
				H151l-0.1-0.6c-0.2,0.2-0.4,0.4-0.7,0.6c-0.3,0.1-0.7,0.2-1.1,0.2c-0.3,0-0.6,0-0.9-0.1c-0.2,0-0.5-0.2-0.7-0.3s-0.3-0.3-0.4-0.6
				C147.1,40.3,147.1,40,147.1,39.6L147.1,39.6L147.1,39.6z M148.5,39.6c0,0.3,0.1,0.5,0.3,0.7c0.2,0.1,0.5,0.2,0.9,0.2
				c0.5,0,0.8-0.1,1-0.2c0.2-0.1,0.3-0.4,0.3-0.7v-0.1c0-0.2-0.1-0.5-0.3-0.6s-0.5-0.2-0.9-0.2h-0.2c-0.4,0-0.7,0.1-0.9,0.2
				C148.6,39,148.5,39.3,148.5,39.6L148.5,39.6L148.5,39.6z"/>
		</g>
	</g>
</g>
<g id="Layer_2_1_">
</g>
</svg>
